<?xml version="1.0" encoding="utf-8"?>
<!-- Generator: Adobe Illustrator 25.3.1, SVG Export Plug-In . SVG Version: 6.00 Build 0)  -->
<svg version="1.1" id="Layer_1" xmlns="http://www.w3.org/2000/svg" xmlns:xlink="http://www.w3.org/1999/xlink" x="0px" y="0px"
	 viewBox="0 0 1728 864" style="enable-background:new 0 0 1728 864;" xml:space="preserve">
<style type="text/css">
	.st0{fill:#FFFFFF;stroke:#FF0000;stroke-width:2;stroke-miterlimit:10;}
</style>
<rect x="45.02" y="102.81" class="st0" width="360" height="144"/>
<rect x="45.02" y="271.86" class="st0" width="360" height="144"/>
<rect x="45.02" y="440.9" class="st0" width="360" height="144"/>
<rect x="45.02" y="617.1" class="st0" width="360" height="144"/>
<rect x="457.52" y="102.86" class="st0" width="360" height="144"/>
<rect x="457.52" y="271.9" class="st0" width="360" height="144"/>
<rect x="457.52" y="440.95" class="st0" width="360" height="144"/>
<rect x="457.52" y="617.14" class="st0" width="360" height="144"/>
<rect x="864.31" y="102.83" class="st0" width="360" height="144"/>
<rect x="864.31" y="271.88" class="st0" width="360" height="144"/>
<rect x="864.31" y="440.93" class="st0" width="360" height="144"/>
<rect x="864.31" y="617.12" class="st0" width="360" height="144"/>
<rect x="1271.1" y="102.86" class="st0" width="360" height="144"/>
<rect x="1271.1" y="271.9" class="st0" width="360" height="144"/>
<rect x="1271.1" y="440.95" class="st0" width="360" height="144"/>
<rect x="1271.1" y="617.14" class="st0" width="360" height="144"/>
</svg>
