<?xml version="1.0" encoding="utf-8"?>
<!-- Generator: Adobe Illustrator 25.4.1, SVG Export Plug-In . SVG Version: 6.00 Build 0)  -->
<svg version="1.1" id="Layer_1" xmlns="http://www.w3.org/2000/svg" xmlns:xlink="http://www.w3.org/1999/xlink" x="0px" y="0px"
	 viewBox="0 0 1146.23 850.39" style="enable-background:new 0 0 1146.23 850.39;" xml:space="preserve">
<style type="text/css">
	.st0{fill:none;stroke:#FF0000;stroke-miterlimit:10;}
	.st1{fill:none;stroke:#FF0000;stroke-miterlimit:10;stroke-dasharray:4.0533,4.0533;}
	.st2{fill:none;stroke:#FF0000;stroke-miterlimit:10;stroke-dasharray:4.0686,4.0686;}
</style>
<g>
	<line class="st0" x1="565.78" y1="456.78" x2="565.78" y2="479.45"/>
	<line class="st0" x1="509.09" y1="456.78" x2="509.09" y2="479.45"/>
	<line class="st0" x1="509.09" y1="666.54" x2="565.78" y2="666.54"/>
	<line class="st0" x1="565.78" y1="269.75" x2="565.78" y2="247.07"/>
	<line class="st0" x1="509.09" y1="269.69" x2="509.09" y2="247.01"/>
	<line class="st0" x1="565.78" y1="246.83" x2="565.78" y2="211.4"/>
	<line class="st0" x1="509.09" y1="247.01" x2="509.09" y2="211.58"/>
	<line class="st0" x1="509.09" y1="211.52" x2="565.78" y2="211.52"/>
	<polyline class="st0" points="551.61,222.87 551.61,237.04 523.26,237.04 523.26,222.87 	"/>
	
		<rect x="536.74" y="627.57" transform="matrix(-1.206397e-10 1 -1 -1.206397e-10 1179.1901 104.2881)" class="st0" width="1.42" height="28.35"/>
	<line class="st0" x1="565.78" y1="666.54" x2="588.46" y2="666.54"/>
	<line class="st0" x1="565.78" y1="479.45" x2="588.46" y2="479.45"/>
	<line class="st0" x1="565.78" y1="456.75" x2="565.78" y2="269.66"/>
	<line class="st0" x1="509.09" y1="456.78" x2="509.09" y2="269.69"/>
	<line class="st0" x1="587.77" y1="479.45" x2="616.12" y2="479.45"/>
	<line class="st0" x1="616.12" y1="479.45" x2="616.12" y2="666.54"/>
	<line class="st0" x1="587.77" y1="666.54" x2="616.12" y2="666.54"/>
	<polyline class="st0" points="609.03,648.83 594.86,648.83 594.86,606.31 609.03,606.31 	"/>
	
		<rect x="530.36" y="251.66" transform="matrix(-1 -8.983804e-11 8.983804e-11 -1 1074.9019 517.5007)" class="st0" width="14.17" height="14.17"/>
	
		<rect x="530.35" y="461.03" transform="matrix(-1 -8.958136e-11 8.958136e-11 -1 1074.8658 936.2318)" class="st0" width="14.17" height="14.17"/>
	
		<rect x="548.06" y="395.19" transform="matrix(-1 -9.047975e-11 9.047975e-11 -1 1097.543 832.8919)" class="st0" width="1.42" height="42.52"/>
	
		<rect x="548.06" y="288.27" transform="matrix(-1 -8.919633e-11 8.919633e-11 -1 1097.543 619.0542)" class="st0" width="1.42" height="42.52"/>
	<polyline class="st0" points="609.03,539.69 594.86,539.69 594.86,497.17 609.03,497.17 	"/>
	<line class="st0" x1="509.09" y1="666.54" x2="486.41" y2="666.54"/>
	<line class="st0" x1="509.09" y1="479.45" x2="486.41" y2="479.45"/>
	<line class="st0" x1="486.41" y1="479.45" x2="458.06" y2="479.45"/>
	<line class="st0" x1="458.06" y1="479.45" x2="458.06" y2="666.54"/>
	<line class="st0" x1="486.41" y1="666.54" x2="458.06" y2="666.54"/>
	<polyline class="st0" points="465.15,648.83 479.32,648.83 479.32,606.31 465.15,606.31 	"/>
	<g>
		<g>
			<line class="st0" x1="565.78" y1="456.78" x2="563.78" y2="456.78"/>
			<line class="st1" x1="559.73" y1="456.78" x2="513.11" y2="456.78"/>
			<line class="st0" x1="511.09" y1="456.78" x2="509.09" y2="456.78"/>
		</g>
	</g>
	<g>
		<g>
			<line class="st0" x1="565.8" y1="270.55" x2="563.8" y2="270.55"/>
			<line class="st1" x1="559.74" y1="270.55" x2="513.13" y2="270.55"/>
			<line class="st0" x1="511.1" y1="270.55" x2="509.1" y2="270.55"/>
		</g>
	</g>
	<g>
		<g>
			<line class="st0" x1="509.09" y1="479.45" x2="511.09" y2="479.45"/>
			<line class="st1" x1="515.14" y1="479.45" x2="561.75" y2="479.45"/>
			<line class="st0" x1="563.78" y1="479.45" x2="565.78" y2="479.45"/>
		</g>
	</g>
	<g>
		<g>
			<line class="st0" x1="565.78" y1="479.45" x2="565.78" y2="481.45"/>
			<line class="st2" x1="565.78" y1="485.52" x2="565.78" y2="662.51"/>
			<line class="st0" x1="565.78" y1="664.54" x2="565.78" y2="666.54"/>
		</g>
	</g>
	<g>
		<g>
			<line class="st0" x1="509.09" y1="479.45" x2="509.09" y2="481.45"/>
			<line class="st2" x1="509.09" y1="485.52" x2="509.09" y2="662.51"/>
			<line class="st0" x1="509.09" y1="664.54" x2="509.09" y2="666.54"/>
		</g>
	</g>
	<g>
		<g>
			<line class="st0" x1="565.78" y1="246.95" x2="563.78" y2="246.95"/>
			<line class="st1" x1="559.73" y1="246.95" x2="513.11" y2="246.95"/>
			<line class="st0" x1="511.09" y1="246.95" x2="509.09" y2="246.95"/>
		</g>
	</g>
	<g>
		<g>
			<line class="st0" x1="588.46" y1="479.45" x2="588.46" y2="481.45"/>
			<line class="st2" x1="588.46" y1="485.52" x2="588.46" y2="662.51"/>
			<line class="st0" x1="588.46" y1="664.54" x2="588.46" y2="666.54"/>
		</g>
	</g>
	<g>
		<g>
			<line class="st0" x1="486.41" y1="479.45" x2="486.41" y2="481.45"/>
			<line class="st2" x1="486.41" y1="485.52" x2="486.41" y2="662.51"/>
			<line class="st0" x1="486.41" y1="664.54" x2="486.41" y2="666.54"/>
		</g>
	</g>
	<rect x="525.39" y="395.19" class="st0" width="1.42" height="42.52"/>
	<rect x="525.39" y="288.27" class="st0" width="1.42" height="42.52"/>
	<polyline class="st0" points="467.28,539.69 481.45,539.69 481.45,497.17 467.28,497.17 	"/>
	
		<rect x="490.66" y="493.63" transform="matrix(-1 -8.983804e-11 8.983804e-11 -1 995.4957 1001.4309)" class="st0" width="14.17" height="14.17"/>
</g>
<line class="st0" x1="159.93" y1="123.14" x2="951.93" y2="122.1"/>
</svg>
